# xmcd CD database file
#
# Track frame offsets:
#	150
#	36719
#	73969
#	116471
#	153682
#	171609
#	202836
#	247431
#	290697
#
# Disc length: 4454 seconds
#
# Revision: 0
# Processed by: cddbd v1.5.2PL0 Copyright (c) Steve Scherf et al.
# Submitted via: CDex 1.70beta2
#
DISCID=99116409
DTITLE=Giovanni Mirabassi Trio - Live At The Blue Note, Tokyo
DYEAR=2010
DGENRE=Jazz
TTITLE0=Ny #1
TTITLE1=It's Us
TTITLE2=World Changes
TTITLE3=Here's The Captain
TTITLE4=My Broken Heart
TTITLE5=It Is What It Is
TTITLE6=Six For Sex
TTITLE7=Gold And Diamonds
TTITLE8=If I Should Lose You
EXTD=YEAR: 2010
EXTT0=
EXTT1=
EXTT2=
EXTT3=
EXTT4=
EXTT5=
EXTT6=
EXTT7=
EXTT8=
PLAYORDER=
